<?xml version="1.0" encoding="UTF-8"?>
<svg id="uuid-140e51b7-cad3-4518-a17c-40ff609b31e9" data-name="Red-10" xmlns="http://www.w3.org/2000/svg" xmlns:xlink="http://www.w3.org/1999/xlink" viewBox="0 0 1080 1080">
  <title>Work from home illustration</title>
<desc>work from home, remote, desks, pets, plants, mugs</desc>
<metadata><?xpacket begin="﻿" id="W5M0MpCehiHzreSzNTczkc9d"?>
<x:xmpmeta xmlns:x="adobe:ns:meta/" x:xmptk="Adobe XMP Core 8.0-c001 1.000000, 0000/00/00-00:00:00        ">
   <rdf:RDF xmlns:rdf="http://www.w3.org/1999/02/22-rdf-syntax-ns#">
      <rdf:Description rdf:about=""
            xmlns:xmp="http://ns.adobe.com/xap/1.0/"
            xmlns:tiff="http://ns.adobe.com/tiff/1.0/"
            xmlns:dc="http://purl.org/dc/elements/1.1/">
         <xmp:rhcc-effective-on>2024-09-30T16:33:50.997Z</xmp:rhcc-effective-on>
         <xmp:rhcc-rights-restricted>no</xmp:rhcc-rights-restricted>
         <xmp:brand-content-subtype>Illustration</xmp:brand-content-subtype>
         <xmp:rhcc-metadata-complete-moderator>pending</xmp:rhcc-metadata-complete-moderator>
         <xmp:rhcc-translation-id>TRA42837a10-c41b-4890-bf16-e80d1521439e</xmp:rhcc-translation-id>
         <xmp:brand-content-type>Illustration</xmp:brand-content-type>
         <xmp:CreateDate>2024-09-30T16:33:50.997Z</xmp:CreateDate>
         <xmp:rhcc-derivative-id>DER42837a10-c41b-4890-bf16-e80d1521439e</xmp:rhcc-derivative-id>
         <xmp:rhcc-effective-on-set-on-upload>true</xmp:rhcc-effective-on-set-on-upload>
         <xmp:rhcc-uploaded-by>alwilker@redhat.com</xmp:rhcc-uploaded-by>
         <xmp:rhcc-metadata-complete-uploader>pending</xmp:rhcc-metadata-complete-uploader>
         <xmp:rhcc-file-last-modified>2024-09-30T16:34:03.747Z</xmp:rhcc-file-last-modified>
         <xmp:rhcc-audience>rhcc-audience:internal</xmp:rhcc-audience>
         <xmp:rhcc-notify-portal-subscribers-on-change>yes</xmp:rhcc-notify-portal-subscribers-on-change>
         <tiff:ImageLength>1080</tiff:ImageLength>
         <tiff:ImageWidth>1080</tiff:ImageWidth>
         <dc:format>image/svg+xml</dc:format>
         <dc:modified>2024-09-30T16:40:26.926Z</dc:modified>
         <dc:description>
            <rdf:Alt>
               <rdf:li xml:lang="x-default">work from home, remote, desks, pets, plants, mugs</rdf:li>
            </rdf:Alt>
         </dc:description>
         <dc:title>
            <rdf:Alt>
               <rdf:li xml:lang="x-default">Work from home illustration</rdf:li>
            </rdf:Alt>
         </dc:title>
      </rdf:Description>
   </rdf:RDF>
</x:xmpmeta>
                                                                                                    
                                                                                                    
                                                                                                    
                                                                                                    
                                                                                                    
                                                                                                    
                                                                                                    
                                                                                                    
                                                                                                    
                                                                                                    
                                                                                                    
                                                                                                    
                                                                                                    
                                                                                                    
                                                                                                    
                                                                                                    
                                                                                                    
                                                                                                    
                                                                          
<?xpacket end="w"?></metadata>
<defs>
    <style>
      .uuid-dd342139-f677-4482-8367-f1da17fef317, .uuid-0d67f4b9-0cad-46f8-a0f1-fb957c34033d, .uuid-50ca569d-b6a6-4966-aed3-345551e52565, .uuid-d0846724-cec1-46c3-8cdf-0bb9ffd88db8, .uuid-1ad23827-c8b9-48cb-a2b0-5961be38b94f, .uuid-44daa32d-8878-454f-9cbc-5307b4d89614, .uuid-4c87240d-4331-40e7-849c-126f1b17e7f7, .uuid-abe15e49-7a57-4a4f-b57d-3e95accc0663, .uuid-aad847bf-861d-4a5a-8a4e-6d230a609cc2, .uuid-c4771c87-e64a-435e-8ad1-c8f27185e5a7, .uuid-1f74ee15-839b-47fb-b2e6-bd40b6051d42, .uuid-88042d8b-fde8-46c7-9f22-39c78bb0c423, .uuid-b776da60-5477-40e2-b9d2-2317fe2c2592, .uuid-75d83ee9-f733-48ab-8eba-d127c79958fc {
        fill: none;
      }

      .uuid-dd342139-f677-4482-8367-f1da17fef317, .uuid-b048ee53-1058-4ef0-ae5d-996f8d0fbc95, .uuid-6f2f092c-fff5-4c51-8a16-89a5f8f149b9, .uuid-00005f1d-44cc-43a9-b51b-4a2f60ca506d, .uuid-265453d9-caea-44f0-95a3-ba1b35bb0e8e, .uuid-4fc1f73f-fd0e-47f5-9f2b-abe843da22e4, .uuid-f75e7530-9640-4ac6-be94-7b4579e07ea8, .uuid-28112776-1d9f-4311-b480-65d18e151426, .uuid-faa73f9f-cc18-4012-868d-e563dcc61532, .uuid-0151062e-5745-43e0-a065-a13c091ad385, .uuid-4c3775d8-cf46-49f0-8b9f-4b108ae457dc, .uuid-68f55eb7-9ac1-47f0-be77-64e2a6632fcf, .uuid-7830f4b5-2165-4790-b7a7-e0b835a63367 {
        stroke-width: 0px;
      }

      .uuid-0d67f4b9-0cad-46f8-a0f1-fb957c34033d {
        stroke-width: 6.29px;
      }

      .uuid-0d67f4b9-0cad-46f8-a0f1-fb957c34033d, .uuid-50ca569d-b6a6-4966-aed3-345551e52565, .uuid-71284385-5080-4cc3-ba98-0525cff71d17, .uuid-d0846724-cec1-46c3-8cdf-0bb9ffd88db8, .uuid-1ad23827-c8b9-48cb-a2b0-5961be38b94f, .uuid-44daa32d-8878-454f-9cbc-5307b4d89614, .uuid-4c87240d-4331-40e7-849c-126f1b17e7f7, .uuid-88d893cf-3a23-408b-811a-66761db94557, .uuid-abe15e49-7a57-4a4f-b57d-3e95accc0663, .uuid-aad847bf-861d-4a5a-8a4e-6d230a609cc2, .uuid-c4771c87-e64a-435e-8ad1-c8f27185e5a7, .uuid-9c849f7a-ebea-4259-b974-1e05cfd4076b, .uuid-88042d8b-fde8-46c7-9f22-39c78bb0c423, .uuid-18cfab18-9f26-47b8-b8df-f918194a73ec, .uuid-ca276876-020a-43c7-99a3-bb4fc663eaa6, .uuid-b776da60-5477-40e2-b9d2-2317fe2c2592, .uuid-75d83ee9-f733-48ab-8eba-d127c79958fc {
        stroke-linecap: round;
      }

      .uuid-0d67f4b9-0cad-46f8-a0f1-fb957c34033d, .uuid-50ca569d-b6a6-4966-aed3-345551e52565, .uuid-71284385-5080-4cc3-ba98-0525cff71d17, .uuid-d0846724-cec1-46c3-8cdf-0bb9ffd88db8, .uuid-1ad23827-c8b9-48cb-a2b0-5961be38b94f, .uuid-44daa32d-8878-454f-9cbc-5307b4d89614, .uuid-4c87240d-4331-40e7-849c-126f1b17e7f7, .uuid-88d893cf-3a23-408b-811a-66761db94557, .uuid-aad847bf-861d-4a5a-8a4e-6d230a609cc2, .uuid-c4771c87-e64a-435e-8ad1-c8f27185e5a7, .uuid-9c849f7a-ebea-4259-b974-1e05cfd4076b, .uuid-18cfab18-9f26-47b8-b8df-f918194a73ec, .uuid-ca276876-020a-43c7-99a3-bb4fc663eaa6, .uuid-b776da60-5477-40e2-b9d2-2317fe2c2592, .uuid-75d83ee9-f733-48ab-8eba-d127c79958fc {
        stroke-linejoin: round;
      }

      .uuid-0d67f4b9-0cad-46f8-a0f1-fb957c34033d, .uuid-71284385-5080-4cc3-ba98-0525cff71d17, .uuid-1ad23827-c8b9-48cb-a2b0-5961be38b94f, .uuid-abe15e49-7a57-4a4f-b57d-3e95accc0663, .uuid-1f74ee15-839b-47fb-b2e6-bd40b6051d42, .uuid-75d83ee9-f733-48ab-8eba-d127c79958fc {
        stroke: #fff;
      }

      .uuid-4686870f-539d-4843-8b35-a184b6b661fb, .uuid-e02af33e-28d3-42ac-b63f-bd7f5dc0a5c1, .uuid-abe15e49-7a57-4a4f-b57d-3e95accc0663, .uuid-1f74ee15-839b-47fb-b2e6-bd40b6051d42, .uuid-88042d8b-fde8-46c7-9f22-39c78bb0c423 {
        stroke-miterlimit: 10;
      }

      .uuid-4686870f-539d-4843-8b35-a184b6b661fb, .uuid-88d893cf-3a23-408b-811a-66761db94557 {
        stroke-width: 2.62px;
      }

      .uuid-4686870f-539d-4843-8b35-a184b6b661fb, .uuid-88042d8b-fde8-46c7-9f22-39c78bb0c423, .uuid-18cfab18-9f26-47b8-b8df-f918194a73ec, .uuid-b776da60-5477-40e2-b9d2-2317fe2c2592 {
        stroke: #e00;
      }

      .uuid-4686870f-539d-4843-8b35-a184b6b661fb, .uuid-68f55eb7-9ac1-47f0-be77-64e2a6632fcf {
        fill: #e00;
      }

      .uuid-bafe8e0c-2d9f-4f78-bcf1-7e9288ea5d6b {
        clip-path: url(#uuid-918af579-f01f-44b6-b59c-2f30f24d4fa5);
      }

      .uuid-50ca569d-b6a6-4966-aed3-345551e52565, .uuid-71284385-5080-4cc3-ba98-0525cff71d17, .uuid-d0846724-cec1-46c3-8cdf-0bb9ffd88db8, .uuid-1ad23827-c8b9-48cb-a2b0-5961be38b94f, .uuid-44daa32d-8878-454f-9cbc-5307b4d89614, .uuid-4c87240d-4331-40e7-849c-126f1b17e7f7, .uuid-abe15e49-7a57-4a4f-b57d-3e95accc0663, .uuid-aad847bf-861d-4a5a-8a4e-6d230a609cc2, .uuid-c4771c87-e64a-435e-8ad1-c8f27185e5a7, .uuid-1f74ee15-839b-47fb-b2e6-bd40b6051d42, .uuid-9c849f7a-ebea-4259-b974-1e05cfd4076b {
        stroke-width: 2px;
      }

      .uuid-50ca569d-b6a6-4966-aed3-345551e52565, .uuid-c4771c87-e64a-435e-8ad1-c8f27185e5a7 {
        stroke: #5f0000;
      }

      .uuid-50ca569d-b6a6-4966-aed3-345551e52565, .uuid-d50ad1d3-d922-44e3-a77b-510a8e72b167 {
        opacity: .6;
      }

      .uuid-71284385-5080-4cc3-ba98-0525cff71d17, .uuid-18cfab18-9f26-47b8-b8df-f918194a73ec, .uuid-ca276876-020a-43c7-99a3-bb4fc663eaa6, .uuid-4c3775d8-cf46-49f0-8b9f-4b108ae457dc {
        fill: #fff;
      }

      .uuid-e02af33e-28d3-42ac-b63f-bd7f5dc0a5c1 {
        stroke-width: 2.52px;
      }

      .uuid-e02af33e-28d3-42ac-b63f-bd7f5dc0a5c1, .uuid-d0846724-cec1-46c3-8cdf-0bb9ffd88db8 {
        stroke: #000;
      }

      .uuid-44daa32d-8878-454f-9cbc-5307b4d89614 {
        stroke: #f56e6e;
      }

      .uuid-4c87240d-4331-40e7-849c-126f1b17e7f7, .uuid-88d893cf-3a23-408b-811a-66761db94557, .uuid-9c849f7a-ebea-4259-b974-1e05cfd4076b {
        stroke: #f9a8a8;
      }

      .uuid-88d893cf-3a23-408b-811a-66761db94557, .uuid-9c849f7a-ebea-4259-b974-1e05cfd4076b, .uuid-00005f1d-44cc-43a9-b51b-4a2f60ca506d {
        fill: #f9a8a8;
      }

      .uuid-aad847bf-861d-4a5a-8a4e-6d230a609cc2 {
        stroke: #707070;
      }

      .uuid-88042d8b-fde8-46c7-9f22-39c78bb0c423 {
        stroke-width: 2.94px;
      }

      .uuid-458c31a3-9d51-4092-8c4f-ae39f2ec06b6 {
        clip-path: url(#uuid-d3d30f41-5273-4147-8281-cd36d5a85016);
      }

      .uuid-18cfab18-9f26-47b8-b8df-f918194a73ec {
        stroke-width: 2.33px;
      }

      .uuid-143bca90-db00-4cab-84ad-77c5ec9b7461 {
        clip-path: url(#uuid-571b215b-44cb-4e34-a311-fdc506727ce4);
      }

      .uuid-ca276876-020a-43c7-99a3-bb4fc663eaa6 {
        stroke: #fce3e3;
      }

      .uuid-ca276876-020a-43c7-99a3-bb4fc663eaa6, .uuid-b776da60-5477-40e2-b9d2-2317fe2c2592, .uuid-75d83ee9-f733-48ab-8eba-d127c79958fc {
        stroke-width: 3px;
      }

      .uuid-6f2f092c-fff5-4c51-8a16-89a5f8f149b9 {
        fill: #f56e6e;
      }

      .uuid-265453d9-caea-44f0-95a3-ba1b35bb0e8e {
        fill: #5f0000;
      }

      .uuid-4fc1f73f-fd0e-47f5-9f2b-abe843da22e4 {
        fill: #724335;
      }

      .uuid-f75e7530-9640-4ac6-be94-7b4579e07ea8 {
        fill: #40251d;
      }

      .uuid-28112776-1d9f-4311-b480-65d18e151426 {
        fill: #dedede;
      }

      .uuid-faa73f9f-cc18-4012-868d-e563dcc61532 {
        fill: #a60000;
      }

      .uuid-0151062e-5745-43e0-a065-a13c091ad385 {
        fill: #fce3e3;
      }

      .uuid-7830f4b5-2165-4790-b7a7-e0b835a63367 {
        fill: #fbc5c5;
      }
    </style>
    <clipPath id="uuid-571b215b-44cb-4e34-a311-fdc506727ce4">
      <path class="uuid-dd342139-f677-4482-8367-f1da17fef317" d="M951.61,420.33c-23.14-19.13-47.96-36.6-68.41-59.17-49.5-54.64-50.05-129.41-97.06-185.48-43.76-52.19-109.48-82.91-177.6-82.91-88.02,0-164.58,49.1-203.79,121.4-21.45,54.27-51.5,105.07-88.71,150.01-34.39,41.52-80.66,71.39-114.69,113.23-94.14,115.74-15.9,304.96,133.06,319,65.59,6.18,130.44-17.61,196-18.58,48.68-.72,97.76,4.19,144.28,19.1,46.13,14.79,85.02,35.8,135.13,35.34,127.81-1.17,229.88-104.55,229.49-232.37-.15-48.3-15.58-95.9-43.92-135.02-12.42-17.16-27.69-31.25-43.77-44.54Z"/>
    </clipPath>
    <clipPath id="uuid-d3d30f41-5273-4147-8281-cd36d5a85016">
      <path class="uuid-dd342139-f677-4482-8367-f1da17fef317" d="M644.85,460.92l-12.12-46.06c-8.2-20.44-28.83-36.12-28.83-36.12-10.5-2.45-21.05-4.72-31.62-6.86l-18.65-3.56c-6.27-.83-12.38-2.5-18.74-2.64-8.19-.19-14.37,2.68-21.49,6.27-4.06,2.04-8.12,4.11-12.05,6.39-22.4,12.96-42.04,28.79-51.29,53.21-5.33,14.09-8.09,29.25-6.97,44.29.51,6.82.86,13.65.86,20.49v149.9s12.81,18.93,58.03,23.12c20.56,1.91,41.3.03,61.29-5.15l33.53-8.69-4.12-14.14c-1.86-6.41-1.9-13.21-.09-19.64l2.82-10.05c.92-3.27.55-6.72-.83-9.82-2.96-6.63-3.85-14.01-2.5-21.15,2.04-10.78,4.71-28.23,4.71-45.51,0-27.87,11.75-45.56,11.75-45.56l36.31-28.71Z"/>
    </clipPath>
    <clipPath id="uuid-918af579-f01f-44b6-b59c-2f30f24d4fa5">
      <circle class="uuid-dd342139-f677-4482-8367-f1da17fef317" cx="212.51" cy="957.08" r="23.03"/>
    </clipPath>
  </defs>
  <path class="uuid-0151062e-5745-43e0-a065-a13c091ad385" d="M951.61,420.33c-23.14-19.13-47.96-36.6-68.41-59.17-49.5-54.64-50.05-129.41-97.06-185.48-43.76-52.19-109.48-82.91-177.6-82.91-88.02,0-164.58,49.1-203.79,121.4-21.45,54.27-51.5,105.07-88.71,150.01-34.39,41.52-80.66,71.39-114.69,113.23-94.14,115.74-15.9,304.96,133.06,319,65.59,6.18,130.44-17.61,196-18.58,48.68-.72,97.76,4.19,144.28,19.1,46.13,14.79,85.02,35.8,135.13,35.34,127.81-1.17,229.88-104.55,229.49-232.37-.15-48.3-15.58-95.9-43.92-135.02-12.42-17.16-27.69-31.25-43.77-44.54Z"/>
  <path class="uuid-4c3775d8-cf46-49f0-8b9f-4b108ae457dc" d="M160.59,586.46h878.28c-1.8-29.24-9.18-57.94-21.58-84.38H184.45c-15.04,26.38-22.68,55.3-23.86,84.38Z"/>
  <path class="uuid-00005f1d-44cc-43a9-b51b-4a2f60ca506d" d="M503.88,936.67c.7-11.29-29.73-22.62-34.84-24.04-5.11-1.42-16.72.49-22-5.78-5.28-6.27-11.96-7.47-11.96-7.47h0s0,0,0,0h0s0,0,0,0c-.9-1.07-1.81-1.95-2.64-2.67-1.5-1.29-3.27-2.21-5.11-2.95-12.26-4.93-16.02-27.44-21.7-38-4.5-8.37-13.24-12.55-17.17-14.08-.96-.37-1.95-.64-2.96-.84-2-.39-7.06-1.81-14.71-6.82-9.66-6.33-22.18-17.75-45.47-2.32-2.4,1.59-5.16,2.55-8.03,2.78-4.53.37-12.73.88-26.29,1.28,0,0-10.57-3.1-34.34,20.74-1.39,1.4-3.02,2.53-4.8,3.37-5.55,2.61-28.28,8.63-44.46,3.1-.63-.22-1.25-.49-1.85-.78-4.4-2.16-27.07-11.46-59.98,7.2-.52.29-1.04.56-1.59.8-3.19,1.4-17.34,8.67-34.24,33.46-1.49,2.18-3.45,4.01-5.76,5.3-12.78,7.17-55.32,28.91-61.11,4.27-.36-1.54-2.63-1.28-2.69.3-.45,11.52-.05,33.09,24.51,35.49-11.59,9.48-24.57,8.35-24.57,8.35-1.39,16.01,9.76,20.34,9.76,20.34,28.57,11.27,38.33-9.42,38.33-9.42,6.33-9.93,16.9-14.98,26.56-17.56-.89,1.84-6.68,14.84,4.64,19.92,0,0,5.92,11.11,21.25,6.03,0,0,3.83-2.44,5.23-6.03,0,0,12.89-1.85,12.89-11.77,0,0,5.38-3.22,10.64-.84,2.97,1.34,6.23,1.92,9.49,2.02,11.63.36,34.5.2,40.65-6.15,0,0,10.95,1.14,23.55-.87h0c1.85,6.11,5.11,9.18,9.54,9.07,0,0,6.62,1.71,8.01-11.44,0,0,1.28-9.71,6.64-13.96h0c-.3,4.68.04,10.57,2.07,17.03,0,0,1.17,2.5,2.53,5.93,3.5,8.82,11.91,14.73,21.4,15l2.61.07c1.94.06,3.89.06,5.83.02,5.23-.12,16.76-.3,22.96.27,2.58.24,5.06-.96,6.46-3.14,1.23-1.91,2.67-4.6,3.95-8.09,0,0,0,.01,0,.01,4.76-3.91,21.49-.51,21.49-.51,23.99,2.95,29.96-7.75,31.23-11.11l.31.07s24.21,7.31,43.16-2.19l19.74-1c1.52.77,3.01,1.8,4.41,3.19,8.99,8.89,25.18,18.19,41.64-2.56l1.47,1.75c.76-1.79.95-3.35.76-4.72.03-.04.05-.07.08-.11h-.1c-.08-.48-.21-.95-.38-1.39l.48.34c5.45-2.32,4.48-8.89,4.48-8.89Z"/>
  <path class="uuid-6f2f092c-fff5-4c51-8a16-89a5f8f149b9" d="M241.51,932.28c.65-12.34,5.87-19.57,9.73-23.27-1.94.08-3.88.25-5.81.48-8.06.99-24.31-6.97-32.5-3.43,0,0-6.1,15.52-12.49,20.16-3.14,2.28-6.05,4.87-9.18,7.17-3.14,2.31-6.91,3.33-10.48,4.9-7.42,3.24-15.19,5.96-23.12,7.44-8.35,1.55-17.81,2.08-26.27,2.84-6.48.58-16.86,3.38-17.34,3.75-3.13,7.58-2.09,14.99,5.33,18.32,0,0,5.92,11.11,21.25,6.03,0,0,3.83-2.44,5.23-6.03,0,0,12.89-1.85,12.89-11.77,0,0,5.38-3.22,10.64-.84,2.97,1.34,6.23,1.92,9.49,2.02,11.63.36,34.5.2,40.65-6.15,0,0,10.95,1.14,23.55-.87h0c-1.5-4.94-2.07-11.87-1.61-20.74Z"/>
  <path class="uuid-6f2f092c-fff5-4c51-8a16-89a5f8f149b9" d="M335.12,963.79s0,.01,0,.01c4.76-3.91,21.49-.51,21.49-.51,23.99,2.95,29.96-7.75,31.23-11.11l.31.07s24.21,7.31,43.16-2.19l19.62-.99c-5.48-5.51-12.05-10.12-18.38-14.08-11.1-6.94-22.98-12.48-34.36-18.94-5.97-3.39-12.1-8.45-19.29-8.48-1.27,0-2.48.18-3.66.48,4.19,5.04,9.82,13.25,9.82,20.92,0,0,5.92,34.71-27.53,25.81"/>
  <path class="uuid-1ad23827-c8b9-48cb-a2b0-5961be38b94f" d="M267.32,936.7c-5.36,4.25-6.64,13.96-6.64,13.96-1.39,13.15-8.01,11.44-8.01,11.44-8.01.2-12.2-9.95-11.15-29.81,1.05-19.86,13.94-26.48,13.94-26.48,6.62-7.32,13.94-22.42,13.94-22.42,0,0,3.83-11.73,20.21-10.33,0,0,20.91,3.6,35.89-.12,0,0,17.89-2.67,24.16,6.74,0,0,9.99,20.21,21.14,23.52,0,0,14.27,13.58,14.27,25.77,0,0,5.92,34.71-27.53,25.81"/>
  <path class="uuid-28112776-1d9f-4311-b480-65d18e151426" d="M338.51,944.84s15.32-9.48,24.84-8.75c0,0,3.27-.64,5.29-1.94,1.52-.98,3.28-1.52,5.08-1.34,4.51.45,11.49,1.97,10.53,7.13,0,0,7.08,3.11,3.89,11.26,0,0-3.19,15.58-31.53,12.09,0,0-16.74-3.4-21.49.51,0,0,2.94-14.89,3.39-18.96Z"/>
  <path class="uuid-00005f1d-44cc-43a9-b51b-4a2f60ca506d" d="M335.12,963.8c4.76-3.91,21.49-.51,21.49-.51,28.34,3.48,31.53-12.09,31.53-12.09,3.19-8.14-3.89-11.26-3.89-11.26.95-5.17-6.03-6.69-10.53-7.13-1.8-.18-3.56.36-5.08,1.34-2.03,1.3-9.08,2.1-9.08,2.1,0,0-1.44.33-4.23.91s-16.83,7.68-16.83,7.68"/>
  <path class="uuid-44daa32d-8878-454f-9cbc-5307b4d89614" d="M474.26,946.06s16.03,2.67,11.41,13.52"/>
  <path class="uuid-44daa32d-8878-454f-9cbc-5307b4d89614" d="M487.15,937.92s16.03,2.67,11.41,13.52"/>
  <path class="uuid-44daa32d-8878-454f-9cbc-5307b4d89614" d="M387.84,952.18s25.84,7.79,44.98-2.92c0,0,13.22-6.32,22.63,2.99,9.41,9.3,26.7,19.08,43.95-5.64"/>
  <path class="uuid-b048ee53-1058-4ef0-ae5d-996f8d0fbc95" d="M495.36,958.31l-6.37-3.64c4.01-7.01,34.86-50.41,40.02-57.65v-141.99h7.33v144.34l-.68.96c-.36.51-36.21,50.81-40.31,57.99Z"/>
  <polygon class="uuid-b048ee53-1058-4ef0-ae5d-996f8d0fbc95" points="423.65 948.21 420.79 941.46 532.58 894.16 627.36 941.56 624.08 948.12 532.32 902.24 423.65 948.21"/>
  <circle class="uuid-b048ee53-1058-4ef0-ae5d-996f8d0fbc95" cx="506.87" cy="966.03" r="21.2"/>
  <circle class="uuid-b048ee53-1058-4ef0-ae5d-996f8d0fbc95" cx="599.82" cy="966.03" r="21.2"/>
  <circle class="uuid-b048ee53-1058-4ef0-ae5d-996f8d0fbc95" cx="432.82" cy="958.92" r="21.2"/>
  <path class="uuid-88042d8b-fde8-46c7-9f22-39c78bb0c423" d="M621.02,939.22s16.66,5.61,11.34,22.87"/>
  <rect class="uuid-faa73f9f-cc18-4012-868d-e563dcc61532" x="506.58" y="763.29" width="52.2" height="20.21"/>
  <g class="uuid-143bca90-db00-4cab-84ad-77c5ec9b7461">
    <g>
      <rect class="uuid-4c3775d8-cf46-49f0-8b9f-4b108ae457dc" x="479.94" y="75.62" width="437.88" height="264.06"/>
      <line class="uuid-ca276876-020a-43c7-99a3-bb4fc663eaa6" x1="690.02" y1="77.01" x2="690.02" y2="338.44"/>
      <rect class="uuid-00005f1d-44cc-43a9-b51b-4a2f60ca506d" x="455.1" y="339.11" width="490.59" height="12.86"/>
      <line class="uuid-ca276876-020a-43c7-99a3-bb4fc663eaa6" x1="479.94" y1="188.77" x2="917.81" y2="188.77"/>
    </g>
  </g>
  <path class="uuid-1ad23827-c8b9-48cb-a2b0-5961be38b94f" d="M269.39,926.01s-4.88,12.23,0,27.72c0,0,1.17,2.5,2.53,5.93,3.5,8.82,11.91,14.73,21.4,15l2.61.07c1.94.06,3.89.06,5.83.02,5.23-.12,16.76-.3,22.96.27,2.58.24,5.06-.96,6.46-3.14,2.9-4.51,6.97-13.24,7.33-27.04,0,0,15.2-8.31,20.08-8.17l-3-4.56c-2.33-3.54-3.1-7.84-2.38-12.02.25-1.44.35-3.12.14-4.98"/>
  <path class="uuid-44daa32d-8878-454f-9cbc-5307b4d89614" d="M278.91,900.11s7.67-5.57,11.38,0c3.72,5.57,2.79,24.16-1.63,31.13-4.41,6.97-7.43,17.45,0,26.96"/>
  <path class="uuid-abe15e49-7a57-4a4f-b57d-3e95accc0663" d="M507.11,950.49s17.45,2.17,15.68,20.15"/>
  <path class="uuid-abe15e49-7a57-4a4f-b57d-3e95accc0663" d="M439.36,944.08s14.98,9.21,5.91,24.84"/>
  <path class="uuid-1ad23827-c8b9-48cb-a2b0-5961be38b94f" d="M71.83,941.31c17.07-3.17,50.17-22.62,50.17-22.62,20.21-18.47,38.42-22.65,38.42-22.65"/>
  <path class="uuid-44daa32d-8878-454f-9cbc-5307b4d89614" d="M212.94,903.19s-1.39,37.08-76.31,44.93c0,0-34.49-1.7-48.43,20.15,0,0-9.76,20.69-38.33,9.42"/>
  <path class="uuid-44daa32d-8878-454f-9cbc-5307b4d89614" d="M311.83,904.52s.24-8.48,14.35-8.48"/>
  <path class="uuid-b048ee53-1058-4ef0-ae5d-996f8d0fbc95" d="M287.1,958.32c-1.32-2.13-3.27-6.58.55-10.2.92-.88,2.06-1.49,3.26-1.91,3.21-1.12,10.71-3.09,16.26.61,0,0,7.85,4.41,4.8,11.17-.44.97-1.42,1.59-2.48,1.59h-4.76c-2.2,0-4.36-.63-6.22-1.81h0s-.38.22-.38.22c-1.78,1.04-3.8,1.59-5.85,1.59h-2.88c-.93,0-1.8-.47-2.29-1.26Z"/>
  <path class="uuid-d0846724-cec1-46c3-8cdf-0bb9ffd88db8" d="M273.64,910.81c2.32,3.91,9.37,5.46,13.75,3.4"/>
  <path class="uuid-d0846724-cec1-46c3-8cdf-0bb9ffd88db8" d="M329.28,910.5c-2.15,4.01-9.12,5.87-13.59,4.01"/>
  <path class="uuid-44daa32d-8878-454f-9cbc-5307b4d89614" d="M386.93,939.82s-6.19,3.03-15.09,2.36"/>
  <path class="uuid-44daa32d-8878-454f-9cbc-5307b4d89614" d="M389.14,946.34s-5.76,3.25-10.77,2.63"/>
  <g>
    <line class="uuid-ca276876-020a-43c7-99a3-bb4fc663eaa6" x1="534.17" y1="204.87" x2="502.07" y2="236.98"/>
    <line class="uuid-ca276876-020a-43c7-99a3-bb4fc663eaa6" x1="560.62" y1="201.68" x2="521.83" y2="240.47"/>
    <line class="uuid-ca276876-020a-43c7-99a3-bb4fc663eaa6" x1="635.84" y1="126.46" x2="597.04" y2="165.26"/>
    <line class="uuid-ca276876-020a-43c7-99a3-bb4fc663eaa6" x1="750.3" y1="205.39" x2="711.51" y2="244.18"/>
    <line class="uuid-ca276876-020a-43c7-99a3-bb4fc663eaa6" x1="509.98" y1="252.32" x2="495.11" y2="267.19"/>
  </g>
  <g>
    <path class="uuid-68f55eb7-9ac1-47f0-be77-64e2a6632fcf" d="M626.42,950.87c-15.05-18.26-14.32-40.92-9.44-49.77,1.15-2.08.46-4.9,3.54-7.99,3.08-3.09-30.29-28.85-34.61-24.62-6.46,6.33-13.27,11.41-20.5,15.09-10.92,5.56-16.88,8.8-20.56,16.71-.76,1.63-.78,3.51-.02,5.14,2.14,4.63,7.76,14.72,18.91,22.59,14.96,10.55,11.82,16.13,27.02,32.8,15.2,16.68,27.08,25.23,34.43,21.29,7.35-3.93,16.27-12.98,1.22-31.23Z"/>
    <path class="uuid-18cfab18-9f26-47b8-b8df-f918194a73ec" d="M602.29,852.15s12.16,22,32.64,29.83c0,0-11.57,9.99-17.94,18.07,0,0-2.15-9.17-13.58-3.1-4.57,2.42-10.41,1.62-14.46-10.91-1.92-5.94-8.19-8.38-10.05-9.91,0,0,18.07-17.34,23.39-23.97Z"/>
    <path class="uuid-faa73f9f-cc18-4012-868d-e563dcc61532" d="M550.58,892.55s-4.45,9.28,15.92,24.61c20.37,15.33,19.32,23.01,27.11,34.2,7.79,11.18,25.61,30.42,36.66,27.11,0,0-11.15,21.15-45.44-23.01-.51-.66-.95-1.38-1.31-2.12-1.9-3.93-9.05-17.63-19.76-25.33-11.61-8.35-17.16-18.03-19.45-23.74-.36-.9-.34-1.89.02-2.79.97-2.42,3.22-7.25,6.27-8.92Z"/>
  </g>
  <polyline class="uuid-b776da60-5477-40e2-b9d2-2317fe2c2592" points="108.18 611.03 108.18 586.46 1038.5 586.46"/>
  <path class="uuid-4fc1f73f-fd0e-47f5-9f2b-abe843da22e4" d="M578.94,534.38h23.73s15.97-5.41,15.97-5.41l31.59,37.28s-37.28,1-41.69-2.85c-4.41-3.84-35.71-1.99-35.71-1.99l6.12-27.03Z"/>
  <path class="uuid-f75e7530-9640-4ac6-be94-7b4579e07ea8" d="M608.53,549.48c-3.55-3.09-24.46-2.5-32.53-2.15l-3.19,14.08s31.3-1.85,35.71,1.99c4.41,3.84,41.69,2.85,41.69,2.85l-11.7-13.81c-11.33-.04-27.2-.53-29.99-2.96Z"/>
  <polygon class="uuid-b048ee53-1058-4ef0-ae5d-996f8d0fbc95" points="690.74 443.92 661.46 538.13 664.86 555.89 717.48 560.24 789.74 553.61 823.74 443.92 690.74 443.92"/>
  <polygon class="uuid-71284385-5080-4cc3-ba98-0525cff71d17" points="697.26 452.51 812.78 452.99 784.72 539.28 670.78 536.14 697.26 452.51"/>
  <g>
    <line class="uuid-4c87240d-4331-40e7-849c-126f1b17e7f7" x1="800.75" y1="462.52" x2="741.37" y2="462.52"/>
    <line class="uuid-4c87240d-4331-40e7-849c-126f1b17e7f7" x1="732.27" y1="462.52" x2="702.1" y2="462.52"/>
    <line class="uuid-4c87240d-4331-40e7-849c-126f1b17e7f7" x1="796.4" y1="472.41" x2="738.06" y2="472.41"/>
    <line class="uuid-4c87240d-4331-40e7-849c-126f1b17e7f7" x1="792.21" y1="482.3" x2="734.93" y2="482.3"/>
    <line class="uuid-4c87240d-4331-40e7-849c-126f1b17e7f7" x1="789.08" y1="492.19" x2="730.75" y2="492.19"/>
    <line class="uuid-4c87240d-4331-40e7-849c-126f1b17e7f7" x1="721.42" y1="492.19" x2="694.63" y2="492.19"/>
  </g>
  <polygon class="uuid-88d893cf-3a23-408b-811a-66761db94557" points="784.85 504.22 690.06 503.71 684.36 520.58 779.14 522.07 784.85 504.22"/>
  <path class="uuid-4fc1f73f-fd0e-47f5-9f2b-abe843da22e4" d="M542.33,346.33l-7.34,24.66,73.54,17.39,10.45-15.1s5.34-16.49,7.43-19.05c0,0,5.69-8.13,2.91-15.8l3.31-4.47c1.38-1.86,1.78-4.27,1.09-6.48l-1.38-4.38s.58-19.66-7.78-22.6l-73.87,16.1-8.36,29.73Z"/>
  <path class="uuid-1f74ee15-839b-47fb-b2e6-bd40b6051d42" d="M608.53,388.38l10.45-15.1s5.34-16.49,7.43-19.05c0,0,5.69-8.13,2.91-15.8l3.31-4.47c1.38-1.86,1.78-4.27,1.09-6.48l-1.38-4.38s.58-19.66-7.78-22.6"/>
  <path class="uuid-f75e7530-9640-4ac6-be94-7b4579e07ea8" d="M601.78,374.31c-.61-3.4-.88-6.88-.77-10.34.12-3.67,1.25-7.21,1.4-10.88.28-6.77-.88-13.54-2.93-19.97-2.79-8.75-7.23-16.88-12.47-24.44l-36.32,7.92-8.36,29.73-7.34,24.66,70.78,16.73c-1.65-4.38-3.16-8.8-3.99-13.41Z"/>
  <g>
    <path class="uuid-68f55eb7-9ac1-47f0-be77-64e2a6632fcf" d="M719.75,935.53c-28.1-5.33-47.87-24.54-50.17-36.54-.54-2.83-.44-7.34.03-12.6.47-5.26-52.59-3.4-53.34,3.87-1.11,10.88-1.38,20.86-5.25,29.87-6.46,15.03-9.49,22.74-5.17,34.69,0,0,15.91,9.65,37.97,7.9,22.06-1.75,23.45,5.85,50.47,9.6,27.02,3.75,44.67,2.51,48.46-6.82,3.79-9.34,5.09-24.64-23.01-29.97Z"/>
    <path class="uuid-faa73f9f-cc18-4012-868d-e563dcc61532" d="M618.89,865.83s15.33,13.85,40.41,5.31c0,0,9.88,13.98,10.2,26.41,0,0-9-5.42-14.94,9.06-2.37,5.78-8.42,9.56-21.88,1.04-6.38-4.04-14.09-1.46-17-1.45,0,0,3.39-30.08,3.21-40.37Z"/>
    <path class="uuid-faa73f9f-cc18-4012-868d-e563dcc61532" d="M604.18,939.94s3.04,12.06,33.82,10.57c30.78-1.49,35.75,6.45,51.63,10.83,15.88,4.38,47.32,8.48,55.03-3.14,0,0,5.27,27.2-62.38,11.88,0,0-19.74-8.68-38.45-7.36-18.71,1.32-31.99-4.91-37.97-7.9,0,0-2.78-9.95-1.68-14.87Z"/>
  </g>
  <path class="uuid-b048ee53-1058-4ef0-ae5d-996f8d0fbc95" d="M569.58,642.97s82.81-10.69,112.73,5.11c0,0,24.81,9.76,7.16,59,0,0-35.77,169-13.94,191.12,0,0-41.21-.18-60.79-9.94,0,0,11.55-107.78,10.15-115.21,0,0-6.53-49.71-3.96-73.87l-58.76-22.3,7.41-33.91Z"/>
  <path class="uuid-b048ee53-1058-4ef0-ae5d-996f8d0fbc95" d="M596.8,655.5l13.01,5.53s145.41,10.74,165.85,18.64c0,0,23.69,10,27.87,25.44,4.18,15.44,12.54,34.95-20.44,60.97l-167.25,142.57s-27.87-1.43-43.2-29.31c0,0,56.03-55.66,60.76-68.2,4.73-12.54,73.96-63.65,73.96-63.65l-18.77-2.08s-183.74,23.45-204.9,6.26-58.2-73.4-32.25-110.57l145.35,14.39Z"/>
  <path class="uuid-4fc1f73f-fd0e-47f5-9f2b-abe843da22e4" d="M599.44,494.69c7.06,14.13,15.16,27.71,24.24,40.62l18.27,25.99c7.62,10.84,17.11,20.25,28.02,27.78,0,0,9.06,3.02,16.96-2.09,0,0,26.02-8.83,44.37-29.73l13.47-13.24s4.65-6.55,0-13.26c0,0-4.18-2.07-4.41-5.32,0,0-.93-2.73-3.37-2.73s-3.14-2.96-5.57-5.72-4.53-1.08-6.62-1.25-2.09-3.66-5.92-4.36c-3.83-.7-6.45,2.26-6.45,2.26l-5.75,7.84-5.23-1.22c-1.74.35-4.18,2.44-4.18,2.44-.34.37-.48,2.14-.65,2.7-.37,1.25-.77,2.47-.96,3.76-.59,4.14,1.7,7.32,3.34,10.9,0,0-10.45.17-19.51,4.21,0,0-29.16-64.27-37.73-71.86l-42.33,22.28Z"/>
  <path class="uuid-68f55eb7-9ac1-47f0-be77-64e2a6632fcf" d="M697.05,535.81l-16.47,1.86-3.41-8.4-21.98-46.5c-.45-.96-.85-1.95-1.18-2.96l-21.27-64.95c-4.14-10.33-11.46-19.45-17.69-25.94-6.22-6.48-14.25-10.94-23.03-12.88-6.56-1.45-13.14-2.83-19.73-4.17l-18.65-3.56c-6.27-.83-12.38-2.5-18.74-2.64-8.19-.19-14.37,2.68-21.49,6.27-4.06,2.04-8.12,4.11-12.05,6.39-22.4,12.96-42.04,28.79-51.29,53.21-5.33,14.09-8.09,29.25-6.97,44.29.51,6.82.86,13.65.86,20.49v149.9s12.81,18.93,58.03,23.12c20.56,1.91,41.3.03,61.29-5.15l33.53-8.69-4.12-14.15c-1.86-6.41-1.9-13.21-.09-19.64l2.82-10.05c.92-3.27.55-6.72-.83-9.82-2.96-6.63-3.85-14.01-2.5-21.15,2.04-10.78,4.71-28.23,4.71-45.51,0-13.65,2.82-24.84,5.69-32.73,6.41,12.84,12.81,25.56,20.77,39.96,6.09,11.02,13.61,20.95,22.12,31.7,6.17,7.78,13.62,14.98,21.23,21.17,2.46,2,5.81,2.52,8.73,1.29,12.77-5.41,48.17-20.87,51.87-27.71,0,0-3.91-33.38-30.18-33.05Z"/>
  <path class="uuid-faa73f9f-cc18-4012-868d-e563dcc61532" d="M591.26,631.85c-19.19-1.19-37.8.92-51.26-13.77-8.23-8.98-13.52-20.38-16.85-32-3.54-12.36-4.9-25.39-4.53-38.22.38-13.24,2.62-26.61,7.49-38.97,2.28-5.78,5.11-11.35,8.68-16.45,3.99-5.69,8.95-10.64,13.92-15.47,10.98-10.66,22.91-20.53,32.27-32.73,9.7-12.66,15.29-27.78,18.68-43.25,1.52-6.94,2.58-13.93,3.38-20.96-3.47-1.78-7.17-3.14-11.01-3.99-6.56-1.45-13.14-2.83-19.73-4.17l-18.65-3.56c-6.27-.83-12.38-2.5-18.74-2.64-8.19-.19-14.37,2.68-21.49,6.27-4.06,2.04-8.12,4.11-12.05,6.39-22.4,12.96-42.04,28.79-51.29,53.21-5.33,14.09-8.09,29.25-6.97,44.29.51,6.82.86,13.65.86,20.49v149.9s12.81,18.93,58.03,23.12c20.56,1.91,41.3.03,61.29-5.15l33.53-8.69-4.12-14.15c-.26-.88-1.42-7.69-1.42-9.51Z"/>
  <g class="uuid-458c31a3-9d51-4092-8c4f-ae39f2ec06b6">
    <line class="uuid-50ca569d-b6a6-4966-aed3-345551e52565" x1="579.07" y1="644.56" x2="584.31" y2="658.52"/>
    <line class="uuid-50ca569d-b6a6-4966-aed3-345551e52565" x1="549.77" y1="649.74" x2="551.26" y2="667.3"/>
    <g class="uuid-d50ad1d3-d922-44e3-a77b-510a8e72b167">
      <path class="uuid-c4771c87-e64a-435e-8ad1-c8f27185e5a7" d="M504.81,643.8s37.54,5.08,70.53-7.04"/>
      <line class="uuid-c4771c87-e64a-435e-8ad1-c8f27185e5a7" x1="565.36" y1="639.9" x2="568.19" y2="657.27"/>
      <line class="uuid-c4771c87-e64a-435e-8ad1-c8f27185e5a7" x1="534.35" y1="645.1" x2="535.01" y2="662.94"/>
    </g>
  </g>
  <path class="uuid-4c3775d8-cf46-49f0-8b9f-4b108ae457dc" d="M688.59,745.42c-89.03,4.79-139.03-4.79-160.26-69.17-11.18-33.9-28.44-63.25-42.27-83.43-21.12-30.81-55.51-49.97-92.83-51.41-2.5-.1-3.92-.07-3.92-.07,0,0-2.03-2.42,8.65,17.09,17.85,32.6,18.66,70.44,24.73,106.27,3.75,22.12,10.47,44.12,21.51,63.75,6.7,11.92,15.69,22.85,27.4,29.91,12.12,7.3,26.45,10.06,40.56,11.03,45.66,3.13,88.7-10.22,133.52-14.34,8.95-.82,17.86-2.12,26.62-4.17,6.43-1.51,12.93-3.41,16.3-5.44Z"/>
  <path class="uuid-e02af33e-28d3-42ac-b63f-bd7f5dc0a5c1" d="M541.69,346.97s23.82,8.76,43.21-4.94c1.71-1.21,3.16-2.75,4.26-4.54,3.43-5.58,14.15-19.64,30.4-10.2,0,0,10.09-4.67,7.31-23.26,0,0,9.51-6.83,6.53-16.48l-23.39-19.24c-18.16-14.94-44.79-14.43-61.84,1.78-.41.39-.83.8-1.24,1.21l-1.54,2.4c-4.31,6.71-7.44,14.11-9.26,21.88h0c-2.27,9.73-2.57,19.82-.86,29.66l6.43,21.72Z"/>
  <path class="uuid-7830f4b5-2165-4790-b7a7-e0b835a63367" d="M846.96,513.02h-24.37v22.26c0,16.05,10.91,29.06,24.37,29.06h0c13.46,0,24.37-13.01,24.37-29.06v-22.26h-24.37Z"/>
  <path class="uuid-00005f1d-44cc-43a9-b51b-4a2f60ca506d" d="M859.44,551.87h0c-13.46,0-24.37-13.01-24.37-29.06v-9.78h-12.48v22.26c0,16.05,10.91,29.06,24.37,29.06h0c8.94,0,16.75-5.74,20.99-14.3-2.65,1.18-5.52,1.83-8.52,1.83Z"/>
  <ellipse class="uuid-265453d9-caea-44f0-95a3-ba1b35bb0e8e" cx="846.96" cy="513.02" rx="24.37" ry="3.64"/>
  <path class="uuid-4c3775d8-cf46-49f0-8b9f-4b108ae457dc" d="M353.54,463.67v69.45c-21.37,8.46-45.15,8.46-66.52,0v-69.45"/>
  <path class="uuid-7830f4b5-2165-4790-b7a7-e0b835a63367" d="M325.06,518.3c-4.48-2.25-8.83-4.97-12.6-8.3-3.25-2.86-5.88-6.43-8.04-10.17-4.96-8.59-7.8-18.42-9.27-28.19-.39-2.62-.69-5.29-.88-7.97h-7.24v69.45c21.37,8.46,45.15,8.46,66.52,0v-6.14c-9.85-1.51-19.57-4.21-28.49-8.69Z"/>
  <ellipse class="uuid-faa73f9f-cc18-4012-868d-e563dcc61532" cx="320.28" cy="463.67" rx="33.26" ry="3.18"/>
  <path class="uuid-00005f1d-44cc-43a9-b51b-4a2f60ca506d" d="M869.4,552.45c-1.71,0-3.43-.22-5.13-.67-1.6-.42-2.56-2.06-2.14-3.66.42-1.6,2.06-2.56,3.66-2.14,4.24,1.11,8.66.22,12.12-2.46,3.47-2.68,5.46-6.72,5.46-11.1v-4.79h-18.34c-1.66,0-3-1.34-3-3s1.34-3,3-3h21.34c1.66,0,3,1.34,3,3v7.79c0,6.25-2.84,12.03-7.79,15.85-3.56,2.74-7.82,4.18-12.18,4.18Z"/>
  <path class="uuid-b048ee53-1058-4ef0-ae5d-996f8d0fbc95" d="M270.6,331.12s.51,22.57-2.31,34.36c-2.82,11.8-6.59,34.88,2.34,46.16,6.83,8.62,21.48,34.82,28.01,46.7,2.02,3.68,5.89,5.97,10.1,5.97h9.32s-17.2-35.74-16.18-47.79c1.03-12.05-2.48-32.82-10.86-43.34-8.37-10.51-8.37-24.36-10.43-30.26-2.05-5.9-10-11.8-10-11.8Z"/>
  <path class="uuid-b048ee53-1058-4ef0-ae5d-996f8d0fbc95" d="M320.44,455.25s9.4-14.91,10.25-23.69c.85-8.78,28.77-48.38,59.53-51.51l16.24-1.23c-15.46,12.79-34.29,26.69-43.67,44.87-2.7,5.23-4.22,7.34-9.3,9.63-4.7,2.12-7.76,6.16-9.96,10.71-1,2.08-1.93,4.66-2.75,7.39-2.2,7.34-9.35,12.04-16.95,11.02l-6.83-.92,3.42-6.27Z"/>
  <path class="uuid-9c849f7a-ebea-4259-b974-1e05cfd4076b" d="M309.89,304.62s-4.55,75.92-10.36,93.48c-5.81,17.56,1.66,54.04,10.52,66.2h19.26c4.93,0,9.08-3.68,9.65-8.58,1.55-13.29,3.74-39.3-.03-58.07-1.34-6.66-1.22-13.58.81-20.07,1.18-3.76,1.67-8.31-.23-12.71l-29.62-60.25Z"/>
  <path class="uuid-6f2f092c-fff5-4c51-8a16-89a5f8f149b9" d="M444.2,728.43c6.7,11.92,15.69,22.85,27.4,29.91,12.12,7.3,26.45,10.06,40.56,11.03,31.59,2.17,61.91-3.55,92.44-8.65-47.55-4.98-77.02-23.09-92.06-68.69-11.18-33.9-28.44-63.25-42.27-83.43-17.01-24.82-42.64-42.07-71.47-48.6,17.03,32.24,17.92,69.43,23.89,104.68,3.75,22.12,10.47,44.12,21.51,63.75Z"/>
  <path class="uuid-e02af33e-28d3-42ac-b63f-bd7f5dc0a5c1" d="M619.78,312.58c5.8-2.92,16.01-18.38,13.22-23.58-4.16-7.76-1.01-13.73-3.67-19.03-2.66-5.3-2.89-7.98-6.98-9.63-4.53-1.83-8.78,2.96-12.32,2.7-6.92-.52-4.28-8.01-7.73-9.14-3.45-1.13-3.38-2.27-6.65-2.9-3.27-.63-4.22-3.62-7.46-4.03-3.24-.41-4.89,2.44-8.19,2.13-3.3-.31-6.78-1.33-9.73-.03-2.95,1.3-4.57,2.83-7.53,3.19-2.96.36-5.28-.96-8.27.57-2.99,1.53-3.27,5.99-6.63,7.52-3.36,1.53-7.98,2.13-10.52,5.12-2.54,2.99-.4,6.97-3.64,9.68-3.24,2.71-5.59,5.18-6.75,9.5-1.16,4.31.26,7.24-.49,11.91s-1.47,7.44.9,12.73c2.37,5.3,4.61,12.46,6.92,18.47,2.3,6.01,6.89,13.43,7.65,20.02"/>
  <polyline class="uuid-aad847bf-861d-4a5a-8a4e-6d230a609cc2" points="607.69 292.72 594.29 283.89 593.84 279.83 587.8 280.64 586.53 274.49"/>
  <path class="uuid-4686870f-539d-4843-8b35-a184b6b661fb" d="M619.56,327.29v6.59c0,.81-.85,1.34-1.58.99l-2.56-1.25c-.89-.43-1.48-1.31-1.56-2.29l-.54-7.05,6.24,3.02Z"/>
  <path class="uuid-0d67f4b9-0cad-46f8-a0f1-fb957c34033d" d="M602.29,324.27s26.67-45.18,7.67-65.04"/>
  <path class="uuid-faa73f9f-cc18-4012-868d-e563dcc61532" d="M623.16,331.99c-5.93,10.63-9.51,20.38-27.17,15.62-9.13-2.46-13.03-14.87-9.1-26.39,3.93-11.52,14.37-18.39,23.32-15.33,8.95,3.05,20.5,12.56,12.95,26.09Z"/>
  <ellipse class="uuid-68f55eb7-9ac1-47f0-be77-64e2a6632fcf" cx="609.96" cy="329.1" rx="20.52" ry="15.94" transform="translate(101.66 800.25) rotate(-71.18)"/>
  <g>
    <circle class="uuid-68f55eb7-9ac1-47f0-be77-64e2a6632fcf" cx="212.51" cy="957.08" r="23.03"/>
    <g class="uuid-bafe8e0c-2d9f-4f78-bcf1-7e9288ea5d6b">
      <path class="uuid-4c87240d-4331-40e7-849c-126f1b17e7f7" d="M232.3,939.39c-18.33,9.94-16.73,35.66-2.72,43.15"/>
      <path class="uuid-4c87240d-4331-40e7-849c-126f1b17e7f7" d="M193.05,933.55c16.08,13.28,6.98,33.18-5.64,42.87"/>
    </g>
  </g>
  <line class="uuid-75d83ee9-f733-48ab-8eba-d127c79958fc" x1="685.06" y1="914.51" x2="673.57" y2="926.88"/>
  <line class="uuid-75d83ee9-f733-48ab-8eba-d127c79958fc" x1="691.95" y1="919.35" x2="680.45" y2="931.72"/>
  <line class="uuid-75d83ee9-f733-48ab-8eba-d127c79958fc" x1="700.09" y1="923.63" x2="688.59" y2="936"/>
  <path class="uuid-44daa32d-8878-454f-9cbc-5307b4d89614" d="M269.39,926.01s-4.88,12.23,0,27.72c0,0,1.17,2.5,2.53,5.93,3.5,8.82,11.72,14.35,21.21,14.62l4.53.09c1.94.06,6.77-.24,8.71-.28"/>
  <path class="uuid-1ad23827-c8b9-48cb-a2b0-5961be38b94f" d="M829.56,505.69s-11.85-11.61-1.63-28.34c10.22-16.72,26-13.24,23.22-31.82"/>
  <path class="uuid-1ad23827-c8b9-48cb-a2b0-5961be38b94f" d="M843.77,475.6c3.21-4.42,7.55-8.13,12.07-11.22"/>
  <path class="uuid-1ad23827-c8b9-48cb-a2b0-5961be38b94f" d="M844.24,505.69c-3.03-3.16-4.97-7.5-5.57-11.81"/>
  <path class="uuid-1ad23827-c8b9-48cb-a2b0-5961be38b94f" d="M880.93,454.39c1.02-2.84,1.08-5.91.63-8.86"/>
  <path class="uuid-1ad23827-c8b9-48cb-a2b0-5961be38b94f" d="M857.02,479.7c4.24-9.72,13.67-13.91,21.07-20.58"/>
  <path class="uuid-1ad23827-c8b9-48cb-a2b0-5961be38b94f" d="M859.96,505.69c-5.4-5.62-6.98-14.16-4.75-21.5"/>
  <path class="uuid-4c3775d8-cf46-49f0-8b9f-4b108ae457dc" d="M632.27,810.46l-10.98,13.03c-.14,1.52-.29,3.05-.44,4.58l13.56-16.09c.1-.11.17-.24.22-.38,3.15-8.34,28.19-29.93,43.31-41.59l.36-2.22c-14.86,11.35-42.14,33.11-46.03,42.67Z"/>
</svg>